<mxfile host="app.diagrams.net" agent="Mozilla/5.0 (Windows NT 10.0; Win64; x64; rv:132.0) Gecko/20100101 Firefox/132.0" version="24.8.4">
  <diagram id="C5RBs43oDa-KdzZeNtuy" name="Page-1">
    <mxGraphModel dx="1290" dy="558" grid="1" gridSize="10" guides="1" tooltips="1" connect="1" arrows="1" fold="1" page="1" pageScale="1" pageWidth="827" pageHeight="1169" background="#FFFFFF" math="0" shadow="0">
      <root>
        <mxCell id="WIyWlLk6GJQsqaUBKTNV-0" />
        <mxCell id="WIyWlLk6GJQsqaUBKTNV-1" parent="WIyWlLk6GJQsqaUBKTNV-0" />
        <mxCell id="Y-R_RtDxPs0OMCq_SQZc-1" value="" style="rounded=0;whiteSpace=wrap;html=1;strokeColor=#000000;fontColor=#1A1A1A;fillColor=#5D7F99;" parent="WIyWlLk6GJQsqaUBKTNV-1" vertex="1">
          <mxGeometry x="50" y="200" width="670" height="450" as="geometry" />
        </mxCell>
        <mxCell id="Y-R_RtDxPs0OMCq_SQZc-2" value="" style="ellipse;whiteSpace=wrap;html=1;aspect=fixed;strokeColor=#000000;fontColor=#1A1A1A;fillColor=#5D7F99;" parent="WIyWlLk6GJQsqaUBKTNV-1" vertex="1">
          <mxGeometry x="20" y="80" width="40" height="40" as="geometry" />
        </mxCell>
        <mxCell id="Y-R_RtDxPs0OMCq_SQZc-3" value="" style="ellipse;whiteSpace=wrap;html=1;aspect=fixed;strokeColor=#000000;fontColor=#1A1A1A;fillColor=#5D7F99;" parent="WIyWlLk6GJQsqaUBKTNV-1" vertex="1">
          <mxGeometry x="160" y="80" width="40" height="40" as="geometry" />
        </mxCell>
        <mxCell id="Y-R_RtDxPs0OMCq_SQZc-4" value="" style="ellipse;whiteSpace=wrap;html=1;aspect=fixed;strokeColor=#000000;fontColor=#1A1A1A;fillColor=#5D7F99;" parent="WIyWlLk6GJQsqaUBKTNV-1" vertex="1">
          <mxGeometry x="300" y="80" width="40" height="40" as="geometry" />
        </mxCell>
        <mxCell id="Y-R_RtDxPs0OMCq_SQZc-5" value="" style="rounded=0;whiteSpace=wrap;html=1;strokeColor=#000000;fontColor=#1A1A1A;fillColor=#5D7F99;" parent="WIyWlLk6GJQsqaUBKTNV-1" vertex="1">
          <mxGeometry x="162.5" y="190" width="25" height="20" as="geometry" />
        </mxCell>
        <mxCell id="Y-R_RtDxPs0OMCq_SQZc-27" value="&lt;font style=&quot;font-size: 16px;&quot;&gt;Staff UI&lt;/font&gt;" style="text;html=1;whiteSpace=wrap;overflow=hidden;rounded=0;fontColor=#1A1A1A;" parent="WIyWlLk6GJQsqaUBKTNV-1" vertex="1">
          <mxGeometry x="10" y="50" width="160" height="40" as="geometry" />
        </mxCell>
        <mxCell id="Y-R_RtDxPs0OMCq_SQZc-28" value="&lt;div style=&quot;font-size: 15px;&quot;&gt;&lt;font style=&quot;font-size: 15px;&quot;&gt;Admin UI&lt;/font&gt;&lt;/div&gt;" style="text;html=1;whiteSpace=wrap;overflow=hidden;rounded=0;fontColor=#1A1A1A;" parent="WIyWlLk6GJQsqaUBKTNV-1" vertex="1">
          <mxGeometry x="150" y="50" width="160" height="40" as="geometry" />
        </mxCell>
        <mxCell id="Y-R_RtDxPs0OMCq_SQZc-29" value="&lt;div&gt;&lt;font style=&quot;font-size: 16px;&quot;&gt;Patient UI&lt;/font&gt;&lt;/div&gt;" style="text;html=1;whiteSpace=wrap;overflow=hidden;rounded=0;fontColor=#1A1A1A;" parent="WIyWlLk6GJQsqaUBKTNV-1" vertex="1">
          <mxGeometry x="280" y="50" width="160" height="40" as="geometry" />
        </mxCell>
        <mxCell id="Y-R_RtDxPs0OMCq_SQZc-31" value="" style="rounded=0;whiteSpace=wrap;html=1;strokeColor=#000000;fontColor=#1A1A1A;fillColor=#5D7F99;" parent="WIyWlLk6GJQsqaUBKTNV-1" vertex="1">
          <mxGeometry x="308.76" y="640" width="22.5" height="20" as="geometry" />
        </mxCell>
        <mxCell id="Y-R_RtDxPs0OMCq_SQZc-32" value="" style="ellipse;whiteSpace=wrap;html=1;aspect=fixed;strokeColor=#D0CEE2;fontColor=#1A1A1A;fillColor=#5D7F99;" parent="WIyWlLk6GJQsqaUBKTNV-1" vertex="1">
          <mxGeometry x="300.01" y="720" width="40" height="40" as="geometry" />
        </mxCell>
        <mxCell id="Y-R_RtDxPs0OMCq_SQZc-54" value="" style="verticalLabelPosition=bottom;verticalAlign=top;html=1;shape=mxgraph.basic.arc;startAngle=0.6526613072179471;endAngle=0.3510676439328775;fillColor=#f5f5f5;fontColor=#333333;strokeColor=#000000;" parent="WIyWlLk6GJQsqaUBKTNV-1" vertex="1">
          <mxGeometry x="295.01" y="715" width="50" height="50" as="geometry" />
        </mxCell>
        <mxCell id="Y-R_RtDxPs0OMCq_SQZc-57" value="" style="endArrow=none;html=1;rounded=0;strokeColor=#000000;fontColor=#1A1A1A;exitX=0.531;exitY=0.022;exitDx=0;exitDy=0;exitPerimeter=0;" parent="WIyWlLk6GJQsqaUBKTNV-1" source="Y-R_RtDxPs0OMCq_SQZc-54" edge="1">
          <mxGeometry width="50" height="50" relative="1" as="geometry">
            <mxPoint x="321.26" y="710" as="sourcePoint" />
            <mxPoint x="321.26" y="660" as="targetPoint" />
          </mxGeometry>
        </mxCell>
        <mxCell id="Y-R_RtDxPs0OMCq_SQZc-58" value="" style="endArrow=none;html=1;rounded=0;strokeColor=#000000;fontColor=#1A1A1A;exitX=0.5;exitY=0;exitDx=0;exitDy=0;entryX=0.686;entryY=1.056;entryDx=0;entryDy=0;entryPerimeter=0;" parent="WIyWlLk6GJQsqaUBKTNV-1" source="Y-R_RtDxPs0OMCq_SQZc-5" target="Y-R_RtDxPs0OMCq_SQZc-2" edge="1">
          <mxGeometry width="50" height="50" relative="1" as="geometry">
            <mxPoint x="130" y="170" as="sourcePoint" />
            <mxPoint x="180" y="120" as="targetPoint" />
          </mxGeometry>
        </mxCell>
        <mxCell id="Y-R_RtDxPs0OMCq_SQZc-59" value="" style="endArrow=none;html=1;rounded=0;strokeColor=#000000;fontColor=#1A1A1A;exitX=0.5;exitY=0;exitDx=0;exitDy=0;entryX=0.5;entryY=1;entryDx=0;entryDy=0;" parent="WIyWlLk6GJQsqaUBKTNV-1" source="Y-R_RtDxPs0OMCq_SQZc-5" target="Y-R_RtDxPs0OMCq_SQZc-3" edge="1">
          <mxGeometry width="50" height="50" relative="1" as="geometry">
            <mxPoint x="270" y="170" as="sourcePoint" />
            <mxPoint x="320" y="120" as="targetPoint" />
          </mxGeometry>
        </mxCell>
        <mxCell id="Y-R_RtDxPs0OMCq_SQZc-60" value="" style="endArrow=none;html=1;rounded=0;fontColor=#1A1A1A;exitX=0.5;exitY=0;exitDx=0;exitDy=0;entryX=0.5;entryY=1;entryDx=0;entryDy=0;fillColor=#f9f7ed;strokeColor=#000000;" parent="WIyWlLk6GJQsqaUBKTNV-1" source="Y-R_RtDxPs0OMCq_SQZc-5" target="Y-R_RtDxPs0OMCq_SQZc-4" edge="1">
          <mxGeometry width="50" height="50" relative="1" as="geometry">
            <mxPoint x="410" y="170" as="sourcePoint" />
            <mxPoint x="460" y="120" as="targetPoint" />
          </mxGeometry>
        </mxCell>
        <mxCell id="2LnD0zyMqlaYRDhF8syO-0" value="&lt;div&gt;&lt;span style=&quot;white-space: pre;&quot;&gt;&#x9;&lt;/span&gt;&lt;span style=&quot;white-space: pre;&quot;&gt;&#x9;&lt;/span&gt;&amp;lt;&amp;lt;System&amp;gt;&amp;gt;&lt;/div&gt;&lt;div&gt;&lt;span style=&quot;white-space: pre;&quot;&gt;&#x9;&lt;/span&gt;&amp;nbsp;&amp;nbsp;&amp;nbsp;&amp;nbsp; &amp;lt;&amp;lt;C4 System&amp;gt;&amp;gt;&lt;/div&gt;&lt;div&gt;&lt;span style=&quot;white-space: pre;&quot;&gt;&#x9;&lt;/span&gt;&amp;nbsp;&amp;nbsp;&amp;nbsp;&amp;nbsp; Sistema Hospital&lt;/div&gt;&lt;div&gt;&lt;br&gt;&lt;/div&gt;" style="text;html=1;whiteSpace=wrap;overflow=hidden;rounded=0;" parent="WIyWlLk6GJQsqaUBKTNV-1" vertex="1">
          <mxGeometry x="275" y="220" width="190" height="70" as="geometry" />
        </mxCell>
        <mxCell id="2LnD0zyMqlaYRDhF8syO-3" value="&lt;div&gt;«Component»&lt;/div&gt;&lt;div&gt;«C4 Component»&lt;/div&gt;&lt;div&gt;&lt;b&gt;Frontend&lt;/b&gt;&lt;/div&gt;" style="html=1;dropTarget=0;whiteSpace=wrap;strokeColor=#000000;fontColor=#1A1A1A;fillColor=#5D7F99;" parent="WIyWlLk6GJQsqaUBKTNV-1" vertex="1">
          <mxGeometry x="70" y="310" width="175.62" height="70" as="geometry" />
        </mxCell>
        <mxCell id="2LnD0zyMqlaYRDhF8syO-4" value="" style="shape=module;jettyWidth=8;jettyHeight=4;strokeColor=#D0CEE2;fontColor=#1A1A1A;fillColor=#5D7F99;" parent="2LnD0zyMqlaYRDhF8syO-3" vertex="1">
          <mxGeometry x="1" width="20" height="20" relative="1" as="geometry">
            <mxPoint x="-27" y="7" as="offset" />
          </mxGeometry>
        </mxCell>
        <mxCell id="2LnD0zyMqlaYRDhF8syO-15" value="&lt;div&gt;«Component»&lt;/div&gt;&lt;div&gt;«C4 Component»&lt;/div&gt;&lt;div&gt;&lt;b&gt;Backoffice&lt;/b&gt;&lt;/div&gt;" style="html=1;dropTarget=0;whiteSpace=wrap;strokeColor=#000000;fontColor=#1A1A1A;fillColor=#5D7F99;" parent="WIyWlLk6GJQsqaUBKTNV-1" vertex="1">
          <mxGeometry x="240" y="525" width="165.62" height="70" as="geometry" />
        </mxCell>
        <mxCell id="2LnD0zyMqlaYRDhF8syO-16" value="" style="shape=module;jettyWidth=8;jettyHeight=4;strokeColor=#D0CEE2;fontColor=#1A1A1A;fillColor=#5D7F99;" parent="2LnD0zyMqlaYRDhF8syO-15" vertex="1">
          <mxGeometry x="1" width="20" height="20" relative="1" as="geometry">
            <mxPoint x="-27" y="7" as="offset" />
          </mxGeometry>
        </mxCell>
        <mxCell id="2LnD0zyMqlaYRDhF8syO-19" value="&lt;div&gt;«Component»&lt;/div&gt;&lt;div&gt;«C4 Component»&lt;/div&gt;&lt;div&gt;&lt;b&gt;Scheduling&lt;/b&gt;&lt;br&gt;&lt;/div&gt;" style="html=1;dropTarget=0;whiteSpace=wrap;strokeColor=#000000;fontColor=#1A1A1A;fillColor=#5D7F99;" parent="WIyWlLk6GJQsqaUBKTNV-1" vertex="1">
          <mxGeometry x="440" y="320" width="165.62" height="60" as="geometry" />
        </mxCell>
        <mxCell id="2LnD0zyMqlaYRDhF8syO-20" value="" style="shape=module;jettyWidth=8;jettyHeight=4;strokeColor=#D0CEE2;fontColor=#1A1A1A;fillColor=#5D7F99;" parent="2LnD0zyMqlaYRDhF8syO-19" vertex="1">
          <mxGeometry x="1" width="20" height="20" relative="1" as="geometry">
            <mxPoint x="-27" y="7" as="offset" />
          </mxGeometry>
        </mxCell>
        <mxCell id="2LnD0zyMqlaYRDhF8syO-21" value="" style="ellipse;whiteSpace=wrap;html=1;aspect=fixed;strokeColor=#000000;fontColor=#1A1A1A;fillColor=#5D7F99;" parent="WIyWlLk6GJQsqaUBKTNV-1" vertex="1">
          <mxGeometry x="350" y="425" width="40" height="40" as="geometry" />
        </mxCell>
        <mxCell id="2LnD0zyMqlaYRDhF8syO-22" value="" style="verticalLabelPosition=bottom;verticalAlign=top;html=1;shape=mxgraph.basic.arc;startAngle=0.6526613072179471;endAngle=0.3510676439328775;fillColor=#000000;fontColor=#333333;strokeColor=#000000;" parent="WIyWlLk6GJQsqaUBKTNV-1" vertex="1">
          <mxGeometry x="345" y="420" width="50" height="50" as="geometry" />
        </mxCell>
        <mxCell id="2LnD0zyMqlaYRDhF8syO-23" value="" style="ellipse;whiteSpace=wrap;html=1;aspect=fixed;strokeColor=#000000;fontColor=#1A1A1A;fillColor=#5D7F99;" parent="WIyWlLk6GJQsqaUBKTNV-1" vertex="1">
          <mxGeometry x="350" y="330" width="40" height="40" as="geometry" />
        </mxCell>
        <mxCell id="2LnD0zyMqlaYRDhF8syO-24" value="" style="verticalLabelPosition=bottom;verticalAlign=top;html=1;shape=mxgraph.basic.arc;startAngle=0.6526613072179471;endAngle=0.3510676439328775;direction=north;fillColor=#F5F5F5;strokeColor=#000000;" parent="WIyWlLk6GJQsqaUBKTNV-1" vertex="1">
          <mxGeometry x="345" y="325" width="50" height="50" as="geometry" />
        </mxCell>
        <mxCell id="2LnD0zyMqlaYRDhF8syO-26" value="" style="rounded=0;whiteSpace=wrap;html=1;strokeColor=#000000;fontColor=#1A1A1A;fillColor=#5D7F99;" parent="WIyWlLk6GJQsqaUBKTNV-1" vertex="1">
          <mxGeometry x="240" y="340" width="14.38" height="20" as="geometry" />
        </mxCell>
        <mxCell id="2LnD0zyMqlaYRDhF8syO-27" value="" style="whiteSpace=wrap;html=1;aspect=fixed;strokeColor=#000000;fontColor=#1A1A1A;fillColor=#5D7F99;" parent="WIyWlLk6GJQsqaUBKTNV-1" vertex="1">
          <mxGeometry x="210" y="370" width="14" height="14" as="geometry" />
        </mxCell>
        <mxCell id="2LnD0zyMqlaYRDhF8syO-28" value="" style="rounded=0;whiteSpace=wrap;html=1;strokeColor=#000000;fontColor=#1A1A1A;fillColor=#5D7F99;" parent="WIyWlLk6GJQsqaUBKTNV-1" vertex="1">
          <mxGeometry x="430" y="341" width="20" height="20" as="geometry" />
        </mxCell>
        <mxCell id="2LnD0zyMqlaYRDhF8syO-29" value="" style="rounded=0;whiteSpace=wrap;html=1;strokeColor=#000000;fontColor=#1A1A1A;fillColor=#5D7F99;" parent="WIyWlLk6GJQsqaUBKTNV-1" vertex="1">
          <mxGeometry x="360" y="510" width="20" height="20" as="geometry" />
        </mxCell>
        <mxCell id="2LnD0zyMqlaYRDhF8syO-33" value="" style="rounded=0;whiteSpace=wrap;html=1;strokeColor=#000000;fontColor=#1A1A1A;fillColor=#5D7F99;" parent="WIyWlLk6GJQsqaUBKTNV-1" vertex="1">
          <mxGeometry x="309.38" y="585" width="21.24" height="20" as="geometry" />
        </mxCell>
        <mxCell id="2LnD0zyMqlaYRDhF8syO-35" value="" style="endArrow=none;html=1;rounded=0;strokeColor=#000000;fontColor=#1A1A1A;entryX=0.5;entryY=1;entryDx=0;entryDy=0;" parent="WIyWlLk6GJQsqaUBKTNV-1" source="2LnD0zyMqlaYRDhF8syO-29" target="2LnD0zyMqlaYRDhF8syO-21" edge="1">
          <mxGeometry width="50" height="50" relative="1" as="geometry">
            <mxPoint x="540" y="620" as="sourcePoint" />
            <mxPoint x="580" y="570" as="targetPoint" />
          </mxGeometry>
        </mxCell>
        <mxCell id="2LnD0zyMqlaYRDhF8syO-36" value="" style="endArrow=none;html=1;rounded=0;strokeColor=#000000;fontColor=#1A1A1A;entryX=0.5;entryY=1;entryDx=0;entryDy=0;exitX=0.5;exitY=0;exitDx=0;exitDy=0;" parent="WIyWlLk6GJQsqaUBKTNV-1" source="Y-R_RtDxPs0OMCq_SQZc-31" target="2LnD0zyMqlaYRDhF8syO-33" edge="1">
          <mxGeometry width="50" height="50" relative="1" as="geometry">
            <mxPoint x="330" y="650" as="sourcePoint" />
            <mxPoint x="380" y="600" as="targetPoint" />
          </mxGeometry>
        </mxCell>
        <mxCell id="2LnD0zyMqlaYRDhF8syO-37" value="" style="endArrow=none;html=1;rounded=0;strokeColor=#000000;fontColor=#1A1A1A;entryX=0.5;entryY=1;entryDx=0;entryDy=0;exitX=0.1;exitY=0.4;exitDx=0;exitDy=0;exitPerimeter=0;" parent="WIyWlLk6GJQsqaUBKTNV-1" source="2LnD0zyMqlaYRDhF8syO-22" target="2LnD0zyMqlaYRDhF8syO-27" edge="1">
          <mxGeometry width="50" height="50" relative="1" as="geometry">
            <mxPoint x="280" y="420" as="sourcePoint" />
            <mxPoint x="330" y="370" as="targetPoint" />
            <Array as="points">
              <mxPoint x="240" y="440" />
            </Array>
          </mxGeometry>
        </mxCell>
        <mxCell id="2LnD0zyMqlaYRDhF8syO-38" value="" style="endArrow=none;html=1;rounded=0;strokeColor=#000000;fontColor=#1A1A1A;exitX=0.74;exitY=0.12;exitDx=0;exitDy=0;exitPerimeter=0;entryX=0;entryY=0.75;entryDx=0;entryDy=0;" parent="WIyWlLk6GJQsqaUBKTNV-1" source="2LnD0zyMqlaYRDhF8syO-22" target="2LnD0zyMqlaYRDhF8syO-28" edge="1">
          <mxGeometry width="50" height="50" relative="1" as="geometry">
            <mxPoint x="390" y="400" as="sourcePoint" />
            <mxPoint x="440" y="350" as="targetPoint" />
          </mxGeometry>
        </mxCell>
        <mxCell id="2LnD0zyMqlaYRDhF8syO-39" value="" style="endArrow=none;html=1;rounded=0;fontColor=#1A1A1A;exitX=1;exitY=0.5;exitDx=0;exitDy=0;entryX=0.5;entryY=-0.04;entryDx=0;entryDy=0;entryPerimeter=0;fillColor=#f5f5f5;strokeColor=#000000;" parent="WIyWlLk6GJQsqaUBKTNV-1" source="2LnD0zyMqlaYRDhF8syO-26" target="2LnD0zyMqlaYRDhF8syO-24" edge="1">
          <mxGeometry width="50" height="50" relative="1" as="geometry">
            <mxPoint x="280" y="420" as="sourcePoint" />
            <mxPoint x="330" y="370" as="targetPoint" />
          </mxGeometry>
        </mxCell>
        <mxCell id="2LnD0zyMqlaYRDhF8syO-40" value="" style="endArrow=none;html=1;rounded=0;strokeColor=#000000;fontColor=#1A1A1A;exitX=0;exitY=0.5;exitDx=0;exitDy=0;entryX=1;entryY=0.5;entryDx=0;entryDy=0;fillColor=#f5f5f5;" parent="WIyWlLk6GJQsqaUBKTNV-1" source="2LnD0zyMqlaYRDhF8syO-28" target="2LnD0zyMqlaYRDhF8syO-23" edge="1">
          <mxGeometry width="50" height="50" relative="1" as="geometry">
            <mxPoint x="280" y="420" as="sourcePoint" />
            <mxPoint x="330" y="370" as="targetPoint" />
          </mxGeometry>
        </mxCell>
        <mxCell id="2LnD0zyMqlaYRDhF8syO-44" value="" style="endArrow=none;html=1;rounded=0;fontColor=#1A1A1A;exitX=0.5;exitY=0;exitDx=0;exitDy=0;entryX=0.5;entryY=1;entryDx=0;entryDy=0;fillColor=#cdeb8b;strokeColor=#000000;" parent="WIyWlLk6GJQsqaUBKTNV-1" target="Y-R_RtDxPs0OMCq_SQZc-5" edge="1">
          <mxGeometry width="50" height="50" relative="1" as="geometry">
            <mxPoint x="175" y="300" as="sourcePoint" />
            <mxPoint x="290" y="210" as="targetPoint" />
            <Array as="points" />
          </mxGeometry>
        </mxCell>
        <mxCell id="lwlMm7fJUxqCn27gfB_s-0" value="" style="rounded=0;whiteSpace=wrap;html=1;strokeColor=#000000;fontColor=#1A1A1A;fillColor=#5D7F99;" parent="WIyWlLk6GJQsqaUBKTNV-1" vertex="1">
          <mxGeometry x="165" y="300" width="20" height="20" as="geometry" />
        </mxCell>
        <mxCell id="9uiyC8pw6nA1ZR-koMB--0" value="Google Cloud Services API" style="text;html=1;align=center;verticalAlign=middle;whiteSpace=wrap;rounded=0;" parent="WIyWlLk6GJQsqaUBKTNV-1" vertex="1">
          <mxGeometry x="275" y="760" width="80" height="30" as="geometry" />
        </mxCell>
        <mxCell id="9uiyC8pw6nA1ZR-koMB--2" value="Backoffice API" style="text;html=1;align=center;verticalAlign=middle;whiteSpace=wrap;rounded=0;fillColor=#5D7F99;" parent="WIyWlLk6GJQsqaUBKTNV-1" vertex="1">
          <mxGeometry x="330" y="470" width="80" height="30" as="geometry" />
        </mxCell>
        <mxCell id="9uiyC8pw6nA1ZR-koMB--3" value="Scheduling API" style="text;html=1;align=center;verticalAlign=middle;whiteSpace=wrap;rounded=0;fillColor=#5D7F99;" parent="WIyWlLk6GJQsqaUBKTNV-1" vertex="1">
          <mxGeometry x="321.24" y="375" width="84.38" height="30" as="geometry" />
        </mxCell>
        <mxCell id="fFzxKlQ63P_JNbMNbTwI-1" value="" style="rounded=0;whiteSpace=wrap;html=1;fillColor=#5D7F99;strokeColor=#6c8ebf;" parent="WIyWlLk6GJQsqaUBKTNV-1" vertex="1">
          <mxGeometry x="50" y="850" width="670" height="230" as="geometry" />
        </mxCell>
        <mxCell id="fFzxKlQ63P_JNbMNbTwI-2" value="&lt;div&gt;System&lt;/div&gt;" style="text;html=1;align=center;verticalAlign=middle;whiteSpace=wrap;rounded=0;" parent="WIyWlLk6GJQsqaUBKTNV-1" vertex="1">
          <mxGeometry x="384" y="860" width="60" height="30" as="geometry" />
        </mxCell>
        <mxCell id="fFzxKlQ63P_JNbMNbTwI-3" value="" style="rounded=0;whiteSpace=wrap;html=1;fillColor=#5D7F99;" parent="WIyWlLk6GJQsqaUBKTNV-1" vertex="1">
          <mxGeometry x="50" y="830" width="120" height="20" as="geometry" />
        </mxCell>
        <mxCell id="fFzxKlQ63P_JNbMNbTwI-7" value="" style="rounded=0;whiteSpace=wrap;html=1;fillColor=#5D7F99;" parent="WIyWlLk6GJQsqaUBKTNV-1" vertex="1">
          <mxGeometry x="200" y="905" width="120" height="70" as="geometry" />
        </mxCell>
        <mxCell id="fFzxKlQ63P_JNbMNbTwI-8" value="" style="rounded=0;whiteSpace=wrap;html=1;fillColor=#5D7F99;" parent="WIyWlLk6GJQsqaUBKTNV-1" vertex="1">
          <mxGeometry x="490" y="910" width="116" height="60" as="geometry" />
        </mxCell>
        <mxCell id="fFzxKlQ63P_JNbMNbTwI-9" value="" style="rounded=0;whiteSpace=wrap;html=1;fillColor=#5D7F99;" parent="WIyWlLk6GJQsqaUBKTNV-1" vertex="1">
          <mxGeometry x="486" y="1010" width="120" height="60" as="geometry" />
        </mxCell>
        <mxCell id="fFzxKlQ63P_JNbMNbTwI-10" value="&lt;div&gt;Frontend&lt;/div&gt;" style="text;html=1;align=center;verticalAlign=middle;whiteSpace=wrap;rounded=0;" parent="WIyWlLk6GJQsqaUBKTNV-1" vertex="1">
          <mxGeometry x="224" y="910" width="60" height="30" as="geometry" />
        </mxCell>
        <mxCell id="fFzxKlQ63P_JNbMNbTwI-11" value="Backoffice" style="text;html=1;align=center;verticalAlign=middle;whiteSpace=wrap;rounded=0;" parent="WIyWlLk6GJQsqaUBKTNV-1" vertex="1">
          <mxGeometry x="516" y="910" width="60" height="30" as="geometry" />
        </mxCell>
        <mxCell id="fFzxKlQ63P_JNbMNbTwI-12" value="Scheduling" style="text;html=1;align=center;verticalAlign=middle;whiteSpace=wrap;rounded=0;" parent="WIyWlLk6GJQsqaUBKTNV-1" vertex="1">
          <mxGeometry x="518" y="1010" width="60" height="30" as="geometry" />
        </mxCell>
        <mxCell id="fFzxKlQ63P_JNbMNbTwI-14" value="" style="endArrow=classic;html=1;rounded=0;exitX=0.5;exitY=0;exitDx=0;exitDy=0;entryX=0.5;entryY=1;entryDx=0;entryDy=0;" parent="WIyWlLk6GJQsqaUBKTNV-1" source="fFzxKlQ63P_JNbMNbTwI-12" target="fFzxKlQ63P_JNbMNbTwI-8" edge="1">
          <mxGeometry width="50" height="50" relative="1" as="geometry">
            <mxPoint x="578" y="988.356896584084" as="sourcePoint" />
            <mxPoint x="531" y="974.9981081081081" as="targetPoint" />
          </mxGeometry>
        </mxCell>
        <mxCell id="ib7ym9MN1Bta0Udd-gMQ-0" value="" style="edgeStyle=segmentEdgeStyle;endArrow=classic;html=1;curved=0;rounded=0;endSize=8;startSize=8;fontSize=12;exitX=0.635;exitY=0.988;exitDx=0;exitDy=0;exitPerimeter=0;entryX=0;entryY=0.5;entryDx=0;entryDy=0;" parent="WIyWlLk6GJQsqaUBKTNV-1" source="fFzxKlQ63P_JNbMNbTwI-7" target="fFzxKlQ63P_JNbMNbTwI-9" edge="1">
          <mxGeometry width="50" height="50" relative="1" as="geometry">
            <mxPoint x="275" y="1025" as="sourcePoint" />
            <mxPoint x="325" y="975" as="targetPoint" />
            <Array as="points">
              <mxPoint x="276" y="1040" />
            </Array>
          </mxGeometry>
        </mxCell>
        <mxCell id="ib7ym9MN1Bta0Udd-gMQ-1" value="" style="endArrow=classic;html=1;rounded=0;fontSize=12;startSize=8;endSize=8;curved=1;entryX=0;entryY=0.5;entryDx=0;entryDy=0;" parent="WIyWlLk6GJQsqaUBKTNV-1" target="fFzxKlQ63P_JNbMNbTwI-8" edge="1">
          <mxGeometry width="50" height="50" relative="1" as="geometry">
            <mxPoint x="320" y="940" as="sourcePoint" />
            <mxPoint x="370" y="890" as="targetPoint" />
          </mxGeometry>
        </mxCell>
        <mxCell id="ib7ym9MN1Bta0Udd-gMQ-2" value="" style="edgeStyle=segmentEdgeStyle;endArrow=classic;html=1;curved=0;rounded=0;endSize=8;startSize=8;fontSize=12;entryX=0;entryY=0.25;entryDx=0;entryDy=0;" parent="WIyWlLk6GJQsqaUBKTNV-1" target="fFzxKlQ63P_JNbMNbTwI-7" edge="1" source="2LnD0zyMqlaYRDhF8syO-3">
          <mxGeometry width="50" height="50" relative="1" as="geometry">
            <mxPoint x="20" y="420" as="sourcePoint" />
            <mxPoint x="70" y="370" as="targetPoint" />
            <Array as="points">
              <mxPoint x="10" y="340" />
              <mxPoint x="10" y="923" />
            </Array>
          </mxGeometry>
        </mxCell>
        <mxCell id="ib7ym9MN1Bta0Udd-gMQ-3" value="" style="edgeStyle=segmentEdgeStyle;endArrow=classic;html=1;curved=0;rounded=0;endSize=8;startSize=8;fontSize=12;entryX=1;entryY=0.5;entryDx=0;entryDy=0;exitX=1;exitY=0.5;exitDx=0;exitDy=0;" parent="WIyWlLk6GJQsqaUBKTNV-1" source="2LnD0zyMqlaYRDhF8syO-19" target="fFzxKlQ63P_JNbMNbTwI-9" edge="1">
          <mxGeometry width="50" height="50" relative="1" as="geometry">
            <mxPoint x="720" y="430" as="sourcePoint" />
            <mxPoint x="770" y="380" as="targetPoint" />
            <Array as="points">
              <mxPoint x="780" y="350" />
              <mxPoint x="780" y="1040" />
            </Array>
          </mxGeometry>
        </mxCell>
        <mxCell id="ib7ym9MN1Bta0Udd-gMQ-4" value="" style="edgeStyle=segmentEdgeStyle;endArrow=classic;html=1;curved=0;rounded=0;endSize=8;startSize=8;fontSize=12;entryX=0;entryY=0;entryDx=0;entryDy=0;exitX=1;exitY=0.5;exitDx=0;exitDy=0;" parent="WIyWlLk6GJQsqaUBKTNV-1" source="2LnD0zyMqlaYRDhF8syO-15" target="fFzxKlQ63P_JNbMNbTwI-11" edge="1">
          <mxGeometry width="50" height="50" relative="1" as="geometry">
            <mxPoint x="480" y="600" as="sourcePoint" />
            <mxPoint x="530" y="550" as="targetPoint" />
            <Array as="points">
              <mxPoint x="516" y="560" />
            </Array>
          </mxGeometry>
        </mxCell>
        <mxCell id="ib7ym9MN1Bta0Udd-gMQ-5" value="«manifest»" style="text;html=1;align=center;verticalAlign=middle;whiteSpace=wrap;rounded=0;fontSize=16;" parent="WIyWlLk6GJQsqaUBKTNV-1" vertex="1">
          <mxGeometry x="530" y="735" width="60" height="30" as="geometry" />
        </mxCell>
        <mxCell id="ib7ym9MN1Bta0Udd-gMQ-6" value="«manifest»" style="text;html=1;align=center;verticalAlign=middle;whiteSpace=wrap;rounded=0;fontSize=16;" parent="WIyWlLk6GJQsqaUBKTNV-1" vertex="1">
          <mxGeometry x="20" y="715" width="60" height="30" as="geometry" />
        </mxCell>
        <mxCell id="ib7ym9MN1Bta0Udd-gMQ-7" value="«manifest»" style="text;html=1;align=center;verticalAlign=middle;whiteSpace=wrap;rounded=0;fontSize=16;" parent="WIyWlLk6GJQsqaUBKTNV-1" vertex="1">
          <mxGeometry x="680" y="1040" width="60" height="30" as="geometry" />
        </mxCell>
      </root>
    </mxGraphModel>
  </diagram>
</mxfile>
